<svg xmlns="http://www.w3.org/2000/svg" version="1.1" xmlns:xlink="http://www.w3.org/1999/xlink" xmlns:svgjs="http://svgjs.dev/svgjs" width="1000" height="1000"><g clip-path="url(#SvgjsClipPath1078)"><rect width="1000" height="1000" fill="#007dff"></rect><g transform="matrix(16.666666666666668,0,0,16.666666666666668,-5.684341886080802e-14,-5.684341886080802e-14)"><svg xmlns="http://www.w3.org/2000/svg" version="1.1" xmlns:xlink="http://www.w3.org/1999/xlink" xmlns:svgjs="http://svgjs.dev/svgjs" width="60" height="60"><svg width="60" height="60" viewBox="0 0 60 60" fill="none" xmlns="http://www.w3.org/2000/svg">
<rect width="60" height="60" rx="12" fill="#007DFF"></rect>
<path d="M43.2089 30.0017C40.148 33.7962 35.5548 36.2318 31.1056 36.2318C27.5377 36.2318 25.0342 34.0126 25.0342 31.4507C25.0342 28.8055 27.2571 26.662 29.9999 26.662C32.477 26.662 34.5313 28.4103 34.9038 30.6981L26.868 31.4759L34.9243 32.0405L37.0235 32.1902C37.0517 31.9486 37.0683 31.6995 37.0683 31.4487C37.0683 31.1238 37.046 30.8064 36.9992 30.4943C36.5183 27.1835 33.566 24.6376 30.0017 24.6376C26.099 24.6376 22.9351 27.687 22.9351 31.4487C22.9351 36.3455 28.0392 38.2599 31.0271 38.2599C36.7522 38.2599 40.99 35.732 44.4474 31.7555C44.9321 31.198 45.3791 30.6135 45.7909 30.0017C45.3773 29.3918 44.9301 28.8055 44.4455 28.2481C40.99 24.2715 35.8018 21.7401 29.9999 21.7401C24.1981 21.7401 19.0099 24.2715 15.5542 28.2498C15.0696 28.8055 14.6226 29.3918 14.209 30.0017C14.6226 30.6116 15.0696 31.198 15.5542 31.7555C17.5355 34.0378 20.0875 35.8422 23.0024 36.9643C20.1793 35.4182 17.9622 32.9643 16.7796 30.0126L16.7873 30.0017C19.8499 26.2092 24.6266 23.7663 29.998 23.7663C35.3696 23.7663 40.1462 26.2092 43.2089 30.0017Z" fill="white"></path>
</svg></svg></g></g><defs><clipPath id="SvgjsClipPath1078"><rect width="1000" height="1000" x="0" y="0" rx="350" ry="350"></rect></clipPath></defs></svg>